name rise44.9368peak50.754fall52.0217.mot
datacolumns 19
datarows 24
range 8.00830700000000 8.04664300000000
endheader
time	ground_force1_vx	ground_force1_vy	ground_force1_vz	ground_force1_px	ground_force1_py	ground_force1_pz	ground_force2_vx	ground_force2_vy	ground_force2_vz	ground_force2_px	ground_force2_py	ground_force2_pz	ground_torque1_x	ground_torque1_y	ground_torque1_z	ground_torque2_x	ground_torque2_y	ground_torque2_z	
8.00830700000000	72.25366200000001	790.12151600000004	68.61306100000000	0.42430600000000	0.00000000000000	0.12056600000000	0.00000000000000	0.00000000000000	0.00000000000000	0.00000000000000	0.00000000000000	0.00000000000000	0.00000000000000	39.06139100000000	0.00000000000000	0.00000000000000	0.00000000000000	0.00000000000000	
8.00997700000000	71.40145900000000	791.71315300000003	68.74312399999999	0.42323300000000	0.00000000000000	0.12062200000000	0.00000000000000	0.00000000000000	0.00000000000000	0.00000000000000	0.00000000000000	0.00000000000000	0.00000000000000	39.19892100000000	0.00000000000000	0.00000000000000	0.00000000000000	0.00000000000000	
8.01164300000000	70.55124900000000	793.16520200000002	68.86769200000001	0.42215800000000	0.00000000000000	0.12068000000000	0.00000000000000	0.00000000000000	0.00000000000000	0.00000000000000	0.00000000000000	0.00000000000000	0.00000000000000	39.33226300000000	0.00000000000000	0.00000000000000	0.00000000000000	0.00000000000000	
8.01330200000000	69.70388600000000	794.47793600000000	68.98660200000000	0.42108000000000	0.00000000000000	0.12074100000000	0.00000000000000	0.00000000000000	0.00000000000000	0.00000000000000	0.00000000000000	0.00000000000000	0.00000000000000	39.46119100000000	0.00000000000000	0.00000000000000	0.00000000000000	0.00000000000000	
8.01497700000000	68.86014400000001	795.65178300000002	69.09963500000001	0.41999900000000	0.00000000000000	0.12080400000000	0.00000000000000	0.00000000000000	0.00000000000000	0.00000000000000	0.00000000000000	0.00000000000000	0.00000000000000	39.58544400000000	0.00000000000000	0.00000000000000	0.00000000000000	0.00000000000000	
8.01664100000000	68.02071200000000	796.68732699999998	69.20653000000000	0.41891500000000	0.00000000000000	0.12086800000000	0.00000000000000	0.00000000000000	0.00000000000000	0.00000000000000	0.00000000000000	0.00000000000000	0.00000000000000	39.70473100000000	0.00000000000000	0.00000000000000	0.00000000000000	0.00000000000000	
8.01830600000000	67.18620400000000	797.58531800000003	69.30698200000000	0.41782800000000	0.00000000000000	0.12093500000000	0.00000000000000	0.00000000000000	0.00000000000000	0.00000000000000	0.00000000000000	0.00000000000000	0.00000000000000	39.81873700000000	0.00000000000000	0.00000000000000	0.00000000000000	0.00000000000000	
8.01996900000000	66.35715300000000	798.34667000000002	69.40064800000000	0.41673700000000	0.00000000000000	0.12100400000000	0.00000000000000	0.00000000000000	0.00000000000000	0.00000000000000	0.00000000000000	0.00000000000000	0.00000000000000	39.92712300000000	0.00000000000000	0.00000000000000	0.00000000000000	0.00000000000000	
8.02164300000000	65.53402300000000	798.97247100000004	69.48715600000000	0.41564200000000	0.00000000000000	0.12107500000000	0.00000000000000	0.00000000000000	0.00000000000000	0.00000000000000	0.00000000000000	0.00000000000000	0.00000000000000	40.02953700000000	0.00000000000000	0.00000000000000	0.00000000000000	0.00000000000000	
8.02330400000000	64.71720400000000	799.46398199999999	69.56610600000000	0.41454300000000	0.00000000000000	0.12114700000000	0.00000000000000	0.00000000000000	0.00000000000000	0.00000000000000	0.00000000000000	0.00000000000000	0.00000000000000	40.12560800000000	0.00000000000000	0.00000000000000	0.00000000000000	0.00000000000000	
8.02496900000000	63.90702300000000	799.82264399999997	69.63707700000001	0.41343900000000	0.00000000000000	0.12122200000000	0.00000000000000	0.00000000000000	0.00000000000000	0.00000000000000	0.00000000000000	0.00000000000000	0.00000000000000	40.21495800000000	0.00000000000000	0.00000000000000	0.00000000000000	0.00000000000000	
8.02664200000000	63.10373800000000	800.05007300000000	69.69963300000001	0.41233000000000	0.00000000000000	0.12129700000000	0.00000000000000	0.00000000000000	0.00000000000000	0.00000000000000	0.00000000000000	0.00000000000000	0.00000000000000	40.29720500000000	0.00000000000000	0.00000000000000	0.00000000000000	0.00000000000000	
8.02831000000000	62.30755200000000	800.14806799999997	69.75332700000000	0.41121500000000	0.00000000000000	0.12137400000000	0.00000000000000	0.00000000000000	0.00000000000000	0.00000000000000	0.00000000000000	0.00000000000000	0.00000000000000	40.37196200000000	0.00000000000000	0.00000000000000	0.00000000000000	0.00000000000000	
8.02997200000000	61.51861000000000	800.11860600000000	69.79770700000000	0.41009400000000	0.00000000000000	0.12145200000000	0.00000000000000	0.00000000000000	0.00000000000000	0.00000000000000	0.00000000000000	0.00000000000000	0.00000000000000	40.43884700000000	0.00000000000000	0.00000000000000	0.00000000000000	0.00000000000000	
8.03164500000000	60.73700400000000	799.96384300000000	69.83232000000000	0.40896700000000	0.00000000000000	0.12153100000000	0.00000000000000	0.00000000000000	0.00000000000000	0.00000000000000	0.00000000000000	0.00000000000000	0.00000000000000	40.49748300000000	0.00000000000000	0.00000000000000	0.00000000000000	0.00000000000000	
8.03330200000000	59.96277800000000	799.68611399999998	69.85672000000000	0.40783200000000	0.00000000000000	0.12161200000000	0.00000000000000	0.00000000000000	0.00000000000000	0.00000000000000	0.00000000000000	0.00000000000000	0.00000000000000	40.54750200000000	0.00000000000000	0.00000000000000	0.00000000000000	0.00000000000000	
8.03497100000000	59.19593300000000	799.28792899999996	69.87046900000000	0.40669100000000	0.00000000000000	0.12169300000000	0.00000000000000	0.00000000000000	0.00000000000000	0.00000000000000	0.00000000000000	0.00000000000000	0.00000000000000	40.58855100000000	0.00000000000000	0.00000000000000	0.00000000000000	0.00000000000000	
8.03664100000000	58.43642800000000	798.77196900000001	69.87314200000000	0.40554100000000	0.00000000000000	0.12177500000000	0.00000000000000	0.00000000000000	0.00000000000000	0.00000000000000	0.00000000000000	0.00000000000000	0.00000000000000	40.62029200000000	0.00000000000000	0.00000000000000	0.00000000000000	0.00000000000000	
8.03830600000000	57.68418700000000	798.14108599999997	69.86433700000001	0.40438400000000	0.00000000000000	0.12185700000000	0.00000000000000	0.00000000000000	0.00000000000000	0.00000000000000	0.00000000000000	0.00000000000000	0.00000000000000	40.64240700000000	0.00000000000000	0.00000000000000	0.00000000000000	0.00000000000000	
8.03997300000000	56.93910000000000	797.39829599999996	69.84367100000000	0.40321700000000	0.00000000000000	0.12194000000000	0.00000000000000	0.00000000000000	0.00000000000000	0.00000000000000	0.00000000000000	0.00000000000000	0.00000000000000	40.65460100000000	0.00000000000000	0.00000000000000	0.00000000000000	0.00000000000000	
8.04163800000000	56.20103100000000	796.54677200000003	69.81078900000000	0.40204100000000	0.00000000000000	0.12202300000000	0.00000000000000	0.00000000000000	0.00000000000000	0.00000000000000	0.00000000000000	0.00000000000000	0.00000000000000	40.65660200000000	0.00000000000000	0.00000000000000	0.00000000000000	0.00000000000000	
8.04331000000000	55.46981700000000	795.58984399999997	69.76536800000000	0.40085600000000	0.00000000000000	0.12210600000000	0.00000000000000	0.00000000000000	0.00000000000000	0.00000000000000	0.00000000000000	0.00000000000000	0.00000000000000	40.64816900000000	0.00000000000000	0.00000000000000	0.00000000000000	0.00000000000000	
8.04497800000000	54.74527700000000	794.53098599999998	69.70711600000000	0.39966100000000	0.00000000000000	0.12219000000000	0.00000000000000	0.00000000000000	0.00000000000000	0.00000000000000	0.00000000000000	0.00000000000000	0.00000000000000	40.62908800000000	0.00000000000000	0.00000000000000	0.00000000000000	0.00000000000000	
8.04664300000000	54.02721100000000	793.37381400000004	69.63578099999999	0.39845500000000	0.00000000000000	0.12227300000000	0.00000000000000	0.00000000000000	0.00000000000000	0.00000000000000	0.00000000000000	0.00000000000000	0.00000000000000	40.59917800000000	0.00000000000000	0.00000000000000	0.00000000000000	0.00000000000000	
